<svg width="24" height="24" viewBox="0 0 24 24" fill="none" xmlns="http://www.w3.org/2000/svg">
  <path d="M12 2C6.477 2 2 1.606 2 12C2 16.523 6.477 17.694 9 17C6.553 17 5.437 16.5 4.437 15.5C6.937 14.5 8.437 13 8.437 11C8.437 7.686 7.402 4.906 5.402 2.906C8.402 2.906 9.902 2.906 11.902 2.906L12 2Z" fill="#000000"/>
  <path d="M12 2C17.523 2 22 1.606 22 12C22 16.523 17.523 17.694 15 17C17.447 17 18.563 16.5 19.563 15.5C17.063 14.5 15.563 13 15.563 11C15.563 7.686 16.598 4.906 18.598 2.906C15.598 2.906 14.098 2.906 12.098 2.906L12 2Z" fill="#000000"/>
</svg>
